<?xml version="1.0" encoding="UTF-8" standalone="no"?>
<svg
   xmlns:dc="http://purl.org/dc/elements/1.1/"
   xmlns:cc="http://creativecommons.org/ns#"
   xmlns:rdf="http://www.w3.org/1999/02/22-rdf-syntax-ns#"
   xmlns:svg="http://www.w3.org/2000/svg"
   xmlns="http://www.w3.org/2000/svg"
   height="79.036423mm"
   width="155mm"
   id="Layer_1"
   data-name="Layer 1"
   viewBox="0 0 585.82676 298.72035"
   version="1.1">
  <metadata
     id="metadata4933">
    <rdf:RDF>
      <cc:Work
         rdf:about="">
        <dc:format>image/svg+xml</dc:format>
        <dc:type
           rdf:resource="http://purl.org/dc/dcmitype/StillImage" />
        <dc:title>CM_LOGO_POSITIVE_MONO_BLACK</dc:title>
      </cc:Work>
    </rdf:RDF>
  </metadata>
  <defs
     id="defs4896">
    <style
       id="style4894">.cls-1,.cls-2,.cls-3{fill:#231f20;}.cls-1,.cls-2{stroke:#231f20;stroke-linecap:round;}.cls-1{stroke-width:5.04px;}.cls-2{stroke-linejoin:round;}</style>
  </defs>
  <title
     id="title4898">CM_LOGO_POSITIVE_MONO_BLACK</title>
  <path
     class="cls-1"
     d="M 292.57604,186.28685"
     id="path4900"
     style="fill:#ffffff;stroke:#231f20;stroke-width:4.391325px;stroke-linecap:round" />
  <path
     class="cls-1"
     d="M 246.07153,141.05858"
     id="path4902"
     style="fill:#ffffff;stroke:#231f20;stroke-width:4.391325px;stroke-linecap:round" />
  <path
     class="cls-2"
     d="M 268.33796,278.35503"
     id="path4904"
     style="fill:#ffffff;stroke:#231f20;stroke-width:0.87129462;stroke-linecap:round;stroke-linejoin:round" />
  <path
     class="cls-3"
     d="m 400.33295,186.72174 -54.39109,-52.90275 a 7.3082266,7.1116848 0 0 0 -5.12627,-2.07211 h -96.68942 a 7.281938,7.086103 0 0 0 -5.12627,2.07211 l -54.07562,52.64693 a 7.2030723,7.0093583 0 0 0 -0.31546,10.23264 l 102.76208,99.97289 a 7.2293609,7.0349401 0 0 0 10.19997,0 l 102.73579,-99.97289 a 7.2293609,7.0349401 0 0 0 0.0263,-9.97682 z m -72.7931,-40.93057 -34.43804,33.46074 -34.43805,-33.5119 h 68.84981 z m -35.06897,136.04295 -92.66726,-90.12397 42.82411,-41.67243 45.32152,44.10268 a 7.2030723,7.0093583 0 0 0 10.17368,0 l 44.69059,-43.48872 42.19318,41.05847 z"
     id="path4906"
     style="fill:#ffffff;stroke-width:0.87129462" />
  <path
     class="cls-3"
     d="M 0.01037435,40.67159 V 40.470483 A 34.569489,37.778757 0 0 1 35.315944,1.916044 a 35.831341,39.157753 0 0 1 23.423129,8.417624 5.9937974,6.550233 0 0 1 2.339684,5.228695 5.9937974,6.550233 0 0 1 -9.569045,5.113778 24.763847,27.062804 0 0 0 -16.298922,-6.722607 c -12.986561,0 -22.555606,11.721469 -22.555606,26.344576 v 0.229817 c 0,14.623106 9.46389,26.459492 22.555606,26.459492 a 24.474673,26.746784 0 0 0 17.08758,-7.153543 5.4680257,5.9756509 0 0 1 3.601536,-1.493911 5.7046229,6.2342128 0 0 1 5.652046,6.090566 5.7834887,6.3204002 0 0 1 -1.945355,4.682843 A 34.911241,38.152233 0 0 1 34.816461,79.139824 34.359181,37.548923 0 0 1 0.01037436,40.671573 Z"
     id="path4908"
     style="fill:#ffffff;stroke-width:0.92334104" />
  <path
     class="cls-3"
     d="m 67.282863,49.951084 v -0.201106 a 27.471728,30.022071 0 0 1 54.943147,-0.201107 v 0.201107 A 26.9458,29.447319 0 0 1 94.64928,79.053653 26.656625,29.131299 0 0 1 67.282863,49.951084 Z m 43.139567,0 V 49.749978 A 15.930883,17.40983 0 0 0 94.64928,31.621921 c -9.46389,0 -15.510265,8.101603 -15.510265,17.926954 v 0.201106 A 15.773151,17.237455 0 0 0 94.912166,67.763122 15.457688,16.892706 0 0 0 110.42243,49.951084 Z"
     id="path4910"
     style="fill:#ffffff;stroke-width:0.92334104" />
  <path
     class="cls-3"
     d="m 130.87495,27.34129 a 5.8360659,6.3778585 0 0 1 5.86235,-6.492774 5.9149316,6.4640456 0 0 1 5.94123,6.492774 v 2.87291 a 18.664895,20.397655 0 0 1 16.1149,-9.82535 c 11.61955,0 18.40201,8.618727 18.40201,21.54682 v 30.079358 a 5.7572001,6.2916711 0 0 1 -5.86236,6.406588 5.8360659,6.3778585 0 0 1 -5.94122,-6.406588 V 45.871555 c 0,-8.618728 -3.99586,-13.761236 -11.01491,-13.761236 -7.01906,0 -11.61956,5.228696 -11.61956,13.962339 V 71.92884 a 5.9149316,6.4640456 0 0 1 -11.80357,0 V 27.34129 Z"
     id="path4912"
     style="fill:#ffffff;stroke-width:0.92334104" />
  <path
     class="cls-3"
     d="M 190.78664,62.247135 V 32.541256 h -1.94536 a 5.0737008,5.544715 0 1 1 0,-11.08943 h 1.94536 V 11.85631 a 5.9149316,6.4640456 0 0 1 11.80357,0 v 9.595516 h 9.27987 a 5.0737008,5.544715 0 1 1 0,11.08943 h -9.27987 v 27.637386 a 5.6257572,6.1480257 0 0 0 6.33555,7.038628 27.971054,30.567754 0 0 0 2.91803,-0.316015 4.9685426,5.4297983 0 0 1 4.96854,5.343614 5.0736969,5.5447146 0 0 1 -3.12834,5.027588 23.475706,25.655079 0 0 1 -8.09688,1.493915 c -8.64895,-0.02864 -14.80047,-4.194449 -14.80047,-16.51923 z"
     id="path4914"
     style="fill:#ffffff;stroke-width:0.92334104" />
  <path
     class="cls-3"
     d="M 248.17462,79.053656 A 25.710236,28.097052 0 0 1 221.7283,49.836169 v -0.229817 c 0,-16.117019 10.51543,-29.332402 25.18446,-29.332402 16.40408,0 24.50097,14.709297 24.50097,27.723573 a 5.5206029,6.0331092 0 0 1 -5.57318,6.176757 h -32.30868 a 14.379856,15.714813 0 0 0 14.82677,14.364545 18.40201,20.110364 0 0 0 12.1979,-4.912674 4.3901937,4.7977584 0 0 1 3.02319,-1.177896 4.6530795,5.0850494 0 0 1 4.67937,5.228696 5.257717,5.7458185 0 0 1 -1.55103,3.935887 26.446317,28.901466 0 0 1 -18.53345,7.440835 z m 11.72471,-33.383205 c -0.78866,-8.331436 -5.25772,-14.824212 -13.1443,-14.824212 -7.22936,0 -12.30305,6.090566 -13.38089,14.824212 h 26.44632 z"
     id="path4916"
     style="fill:#ffffff;stroke-width:0.92334104" />
  <path
     class="cls-3"
     d="m 280.19411,27.34129 a 5.8360659,6.3778585 0 0 1 5.86236,-6.492774 5.9149316,6.4640456 0 0 1 5.94122,6.492774 v 2.87291 a 18.664895,20.397655 0 0 1 16.08861,-9.82535 c 11.61956,0 18.40201,8.618727 18.40201,21.54682 v 30.079358 a 5.7572001,6.2916711 0 0 1 -5.86235,6.406588 5.8360659,6.3778585 0 0 1 -5.94122,-6.406588 V 45.871555 c 0,-8.618728 -3.99587,-13.761236 -11.04121,-13.761236 -7.04534,0 -11.61955,5.228696 -11.61955,13.962339 V 71.92884 a 5.9149316,6.4640456 0 0 1 -11.80358,0 V 27.34129 Z"
     id="path4918"
     style="fill:#ffffff;stroke-width:0.92334104" />
  <path
     class="cls-3"
     d="M 340.18466,62.247135 V 32.541256 h -1.94535 a 5.0737008,5.544715 0 1 1 0,-11.08943 h 1.94535 V 11.85631 a 5.9149316,6.4640456 0 0 1 11.80358,0 v 9.595516 h 9.27987 a 5.0737008,5.544715 0 1 1 0,11.08943 h -9.27987 v 27.637386 a 5.6257572,6.1480257 0 0 0 6.33555,7.038628 27.918477,30.510295 0 0 0 2.91803,-0.316015 4.9685426,5.4297983 0 0 1 4.96854,5.343614 5.0736969,5.5447146 0 0 1 -3.12834,5.027588 23.659727,25.856183 0 0 1 -8.09688,1.493915 c -8.64895,-0.02864 -14.80048,-4.194449 -14.80048,-16.51923 z"
     id="path4920"
     style="fill:#ffffff;stroke-width:0.92334104" />
  <path
     class="cls-3"
     d="m 377.59332,9.2994206 a 6.020086,6.5789621 0 0 1 6.04638,-6.6076911 h 1.26185 a 6.3092604,6.8949819 0 0 1 5.57318,3.5336782 L 411.16384,41.648379 431.95811,6.1392207 a 6.020086,6.5789621 0 0 1 5.46803,-3.4187621 h 1.26185 a 6.020086,6.5789621 0 0 1 6.04638,6.6076911 V 71.813925 a 5.9412202,6.4927747 0 0 1 -6.04638,6.492773 6.0463746,6.6076912 0 0 1 -5.94122,-6.492773 V 26.996541 l -16.69325,27.407553 a 5.5994686,6.1192966 0 0 1 -10.04224,0 l -16.5881,-27.206449 v 44.673737 a 5.8360659,6.3778585 0 0 1 -5.94122,6.406588 5.7572001,6.2916711 0 0 1 -5.86235,-6.406588 V 9.2994206 Z"
     id="path4922"
     style="fill:#ffffff;stroke-width:0.92334104" />
  <path
     class="cls-3"
     d="m 456.1699,6.3115951 a 6.8087435,7.4408349 0 0 1 13.45976,0 v 0.63204 a 6.8087435,7.4408349 0 0 1 -13.45976,0 z m 0.86752,21.0009659 a 5.8360659,6.3778585 0 0 1 5.86236,-6.492775 5.9149316,6.4640456 0 0 1 5.94122,6.492775 v 44.587552 a 5.9149316,6.4640456 0 0 1 -11.80358,0 V 27.34129 Z"
     id="path4924"
     style="fill:#ffffff;stroke-width:0.92334104" />
  <path
     class="cls-3"
     d="m 481.09148,27.34129 a 5.8360659,6.3778585 0 0 1 5.86235,-6.492774 5.9149316,6.4640456 0 0 1 5.94122,6.492774 v 2.87291 a 18.691184,20.426384 0 0 1 16.11491,-9.82535 c 11.61955,0 18.40201,8.618727 18.40201,21.54682 v 30.079358 a 5.7572001,6.2916711 0 0 1 -5.86236,6.406588 5.8360659,6.3778585 0 0 1 -5.96751,-6.406588 V 45.871555 c 0,-8.618728 -3.99586,-13.761236 -11.0412,-13.761236 -7.04534,0 -11.61956,5.228696 -11.61956,13.962339 V 71.92884 a 5.9149316,6.4640456 0 0 1 -11.80357,0 V 27.34129 Z"
     id="path4926"
     style="fill:#ffffff;stroke-width:0.92334104" />
  <path
     class="cls-3"
     d="M 562.58609,79.053656 A 25.710236,28.097052 0 0 1 536.13978,49.836169 v -0.229817 c 0,-16.117019 10.51543,-29.332402 25.18446,-29.332402 16.40408,0 24.50096,14.709297 24.50096,27.723573 a 5.5206029,6.0331092 0 0 1 -5.57318,6.176757 h -32.38753 a 14.379856,15.714813 0 0 0 14.82676,14.364545 18.533452,20.25401 0 0 0 12.1979,-4.912674 4.3901937,4.7977584 0 0 1 3.02319,-1.177896 4.6530795,5.0850494 0 0 1 4.67937,5.228696 5.257717,5.7458185 0 0 1 -1.55103,3.935887 26.446317,28.901466 0 0 1 -18.45459,7.440835 z M 574.3108,45.670451 c -0.78866,-8.331436 -5.25771,-14.824212 -13.14429,-14.824212 -7.22936,0 -12.30306,6.090566 -13.38089,14.824212 h 26.44632 z"
     id="path4928"
     style="fill:#ffffff;stroke-width:0.92334104" />
</svg>
